<?xml version="1.0" encoding="utf-8"?>
<!-- Generator: Adobe Illustrator 16.0.0, SVG Export Plug-In . SVG Version: 6.00 Build 0)  -->
<!DOCTYPE svg PUBLIC "-//W3C//DTD SVG 1.1//EN" "http://www.w3.org/Graphics/SVG/1.1/DTD/svg11.dtd">
<svg version="1.1" id="Layer_1" xmlns="http://www.w3.org/2000/svg" xmlns:xlink="http://www.w3.org/1999/xlink" x="0px" y="0px"
	 width="198.425px" height="198.426px" viewBox="0 0 198.425 198.426" enable-background="new 0 0 198.425 198.426"
	 xml:space="preserve">
<g>
	<path d="M188.816,68.271l-20.229-6.086c-0.725-0.223-1.467-0.336-2.209-0.336c-1.459,0-2.834,0.445-3.971,1.285
		c-1.68,1.248-2.719,3.32-2.852,5.688l-1.121,0.086l-3.539-16.518c-1.209-5.682-6.52-11.025-12.133-12.178
		c-0.17-0.047-4.256-1.18-12.992-2.264l-0.264-0.047l-0.129-0.01c-9.053-0.656-17.42-1.104-28.826-1.154l-0.383-0.008l-0.959,0.002
		l-0.889-0.004l-0.453,0.01c-11.375,0.051-19.721,0.496-28.717,1.146l-0.498,0.064c-8.736,1.084-12.822,2.217-13.031,2.273
		c-5.568,1.141-10.885,6.486-12.104,12.17l-3.537,16.516l-1.121-0.088c-0.127-2.359-1.164-4.432-2.85-5.686
		c-1.131-0.84-2.506-1.285-3.975-1.285c-0.73,0-1.477,0.113-2.215,0.338L9.611,68.271c-1.172,0.355-1.957,1.41-1.957,2.627v4.668
		c0,4.92,3.791,8.922,8.453,8.922h6.934l-0.791,0.934c-4.307,5.08-6.418,11.645-5.945,18.482l0.006,0.08l-0.018,0.076
		c-0.041,0.193-0.059,0.375-0.059,0.568v51.484c0,3.08,2.518,5.586,5.615,5.586h28.578c3.094,0,5.609-2.506,5.609-5.586v-7.729
		l0.527-0.039c10.16-0.729,23.012-1.477,41.301-1.502h2.697c18.287,0.025,31.139,0.773,41.299,1.502l0.525,0.039v7.729
		c0,3.08,2.518,5.586,5.611,5.586h28.578c3.092,0,5.607-2.506,5.607-5.586v-51.484c0-0.195-0.021-0.381-0.059-0.58l-0.014-0.072
		l0.006-0.072c0.475-6.842-1.637-13.404-5.947-18.48l-0.793-0.936h6.936c4.664,0,8.459-4.002,8.459-8.922v-4.668
		C190.771,69.681,189.986,68.624,188.816,68.271z M48.883,53.542c0.773-3.605,4.463-7.27,8.072-8.006
		c1.088-0.283,5.23-1.279,12.916-2.209c9.166-0.654,17.664-1.094,29.342-1.117h0.002c11.686,0.023,20.17,0.463,29.344,1.119
		c7.705,0.932,11.826,1.924,12.939,2.217c3.521,0.717,7.281,4.453,8.043,7.996l4.846,22.605H44.041L48.883,53.542z M16.107,79.007
		c-1.635,0-2.965-1.545-2.965-3.441v-2.633l18.256-5.488c0.25-0.08,0.459-0.117,0.654-0.117c0.264,0,0.5,0.074,0.686,0.213
		c0.412,0.305,0.658,0.979,0.658,1.803v8.4l-0.369,0.137c-0.83,0.313-1.66,0.672-2.471,1.068l-0.117,0.059H16.107z M50.547,156.231
		l-28.818-0.016l-0.004-12.904l0.994,1.148c0.604,0.693,1.258,1.336,1.949,1.91c3.039,2.537,6.783,3.877,10.828,3.877
		c0.625,0,1.25-0.029,1.877-0.096c1.186-0.152,5.592-0.693,12.559-1.285l0.615-0.053V156.231z M176.697,156.216l-28.822,0.016
		v-7.418l0.615,0.053c6.699,0.568,11.014,1.088,12.59,1.291c0.594,0.061,1.215,0.09,1.85,0.09c4.037,0,7.781-1.34,10.828-3.877
		c0.703-0.586,1.357-1.229,1.941-1.908l0.998-1.16V156.216z M176.635,103.815l-2.547,30.955c-0.242,2.902-1.604,5.525-3.836,7.387
		c-2.033,1.686-4.637,2.613-7.33,2.613c-0.396,0-0.791-0.018-1.207-0.061c-0.236-0.033-23.924-3.354-61.965-3.354h-1.076
		c-37.996,0-61.002,3.217-61.986,3.357c-0.391,0.039-0.791,0.057-1.182,0.057c-2.699,0-5.303-0.928-7.332-2.615
		c-2.232-1.854-3.596-4.477-3.838-7.385l-2.545-30.955c-0.48-5.814,1.365-11.307,5.195-15.467c3.982-4.334,9.633-6.721,15.91-6.721
		h112.627c6.271,0,11.924,2.387,15.916,6.721C175.262,92.499,177.107,97.991,176.635,103.815z M185.283,75.565
		c0,1.896-1.332,3.441-2.967,3.441h-14.33l-0.119-0.059c-0.822-0.402-1.654-0.762-2.477-1.066l-0.369-0.139v-8.4
		c0-0.828,0.252-1.504,0.633-1.775c0.18-0.156,0.428-0.24,0.717-0.24c0.189,0,0.404,0.039,0.648,0.115l18.264,5.49V75.565z"/>
	<path d="M112.184,108.856H86.232c-5.674,0-10.291,4.629-10.291,10.32v5.207c0,2.754,1.07,5.344,3.014,7.291
		c1.943,1.953,4.529,3.027,7.277,3.027h25.951c2.756,0,5.342-1.074,7.281-3.027c1.947-1.947,3.021-4.535,3.021-7.291v-5.207
		C122.486,113.485,117.865,108.856,112.184,108.856z M117.502,124.384c0,2.943-2.385,5.34-5.318,5.34H86.232
		c-2.932,0-5.316-2.396-5.316-5.34v-5.207c0-2.941,2.385-5.336,5.316-5.336h25.951c2.934,0,5.318,2.395,5.318,5.336V124.384z"/>
	<path d="M159.168,103.138c-0.467,0-0.936,0.043-1.395,0.133l-19.262,3.6c-4.16,0.781-7.42,4.777-7.42,9.094
		c0,4.488,3.578,8.139,7.977,8.139h16.35c4.266,0,8.148-3.35,8.838-7.629l0.943-5.801c0.373-2.297-0.246-4.432-1.701-5.857
		C162.383,103.733,160.844,103.138,159.168,103.138z M160.195,109.858l-0.934,5.801c-0.293,1.801-2.088,3.381-3.844,3.381h-16.35
		c-1.607,0-2.914-1.381-2.914-3.076c0-1.861,1.537-3.787,3.293-4.119l19.238-3.588c0.164-0.035,0.34-0.055,0.496-0.055
		c0.262,0,0.615,0.049,0.766,0.23C160.211,108.683,160.305,109.218,160.195,109.858z"/>
	<path d="M156.514,129.669h-22.922c-1.379,0-2.5,1.125-2.5,2.51c0,1.377,1.121,2.498,2.5,2.498h22.922
		c1.385,0,2.51-1.121,2.51-2.498C159.023,130.794,157.898,129.669,156.514,129.669z"/>
	<path d="M59.906,106.87l-19.258-3.598c-0.455-0.09-0.924-0.135-1.393-0.135c-1.68,0-3.217,0.596-4.324,1.678
		c-1.459,1.426-2.08,3.561-1.707,5.857l0.938,5.801c0.693,4.279,4.576,7.629,8.84,7.629H59.35c4.402,0,7.984-3.65,7.984-8.139
		C67.334,111.646,64.072,107.651,59.906,106.87z M59.35,119.04H43.002c-1.752,0-3.547-1.582-3.84-3.385l-0.941-5.801
		c-0.1-0.639-0.006-1.168,0.281-1.445c0.162-0.133,0.422-0.207,0.734-0.207c0.158,0,0.326,0.018,0.486,0.051l19.26,3.594
		c1.752,0.332,3.291,2.256,3.291,4.117C62.273,117.659,60.961,119.04,59.35,119.04z"/>
	<path d="M64.832,129.669H41.91c-1.383,0-2.506,1.125-2.506,2.51c0,1.377,1.123,2.498,2.506,2.498h22.922
		c1.379,0,2.502-1.121,2.502-2.498C67.334,130.794,66.211,129.669,64.832,129.669z"/>
</g>
</svg>
