<?xml version="1.0" encoding="utf-8"?>
<!-- Generator: Adobe Illustrator 16.0.0, SVG Export Plug-In . SVG Version: 6.00 Build 0)  -->
<!DOCTYPE svg PUBLIC "-//W3C//DTD SVG 1.1//EN" "http://www.w3.org/Graphics/SVG/1.1/DTD/svg11.dtd">
<svg version="1.1" id="Layer_1" xmlns="http://www.w3.org/2000/svg" xmlns:xlink="http://www.w3.org/1999/xlink" x="0px" y="0px"
	 width="198.425px" height="198.426px" viewBox="0 0 198.425 198.426" enable-background="new 0 0 198.425 198.426"
	 xml:space="preserve">
<g>
	<path d="M180.305,183.798l-7.187-8.014l2.472-1.669c5.58-3.769,6.18-9.631,4.884-13.866c-1.235-4.037-5.063-8.75-11.779-8.75
		h-13.039c-1.636,0-2.967,1.335-2.967,2.977v31.303c0,2.782,2.465,2.923,2.958,2.923c0.496,0,2.979-0.141,2.979-2.923v-9.556h6.923
		l10.314,11.533c0.623,0.693,1.332,1.045,2.093,1.045c1.201,0,2.452-0.845,2.971-2.013
		C181.385,185.778,181.17,184.766,180.305,183.798z M168.694,170.286h-10.068v-12.849h10.068c3.639,0,6.385,2.764,6.385,6.424
		c0,1.634-0.563,3.178-1.594,4.349C172.306,169.547,170.604,170.286,168.694,170.286z"/>
	<path d="M43.374,180.024H22.589l2.979-4.121c2.93-4.061,6.658-4.68,10.601-5.343l1.722-0.296c6.354-1.163,8.766-6.416,8.339-11.113
		c-0.425-4.683-3.741-9.408-10.19-9.408h-15.74c-2.773,0-2.918,2.472-2.918,2.967c0,0.496,0.145,2.965,2.918,2.965h15.74
		c2.309,0,4.131,1.694,4.344,4.015c0.21,2.329-1.292,4.32-3.559,4.732c-15.254,2.797-20.029,12.125-19.523,17.713
		c0.086,0.901,0.542,3.832,2.998,3.832h23.076c2.777,0,2.922-2.483,2.922-2.977c0-0.816-0.27-1.58-0.729-2.107
		C45.063,180.31,44.323,180.024,43.374,180.024z"/>
	<path d="M23.43,15.56h5.439v27.48c0,2.781,2.464,2.927,2.958,2.927h0.004c0.816,0,1.587-0.27,2.115-0.733
		c0.574-0.508,0.86-1.243,0.86-2.193V12.593c0-1.635-1.329-2.968-2.971-2.968H23.43c-0.954,0-1.694,0.289-2.195,0.857
		c-0.462,0.522-0.727,1.286-0.727,2.098C20.508,13.079,20.648,15.56,23.43,15.56z"/>
	<path d="M103.319,39.899H87.82c-2.778,0-2.917,2.474-2.917,2.97c0,0.499,0.139,2.968,2.917,2.968h15.499
		c4.006,0,7.501-2.137,9.349-5.703c1.844-3.567,1.565-7.643-0.741-10.899l-1.063-1.506l1.063-1.502
		c2.307-3.257,2.585-7.334,0.741-10.901c-1.848-3.565-5.343-5.7-9.349-5.7H87.82c-2.778,0-2.917,2.476-2.917,2.968
		c0,0.497,0.139,2.967,2.917,2.967h15.499c2.612,0,4.583,1.978,4.583,4.598c0,1.162-0.408,2.256-1.147,3.102
		c-0.854,0.967-2.072,1.501-3.436,1.501h-9.432c-2.788,0-2.932,2.479-2.932,2.973c0,0.499,0.144,2.972,2.932,2.972h9.432
		c2.612,0,4.583,1.972,4.583,4.597c0,1.158-0.408,2.259-1.147,3.093C105.9,39.365,104.683,39.899,103.319,39.899z"/>
	<path d="M112.782,167.146h-5.82V153.74c0-2.779-2.474-2.922-2.97-2.922c-0.499,0-2.967,0.143-2.967,2.922v13.405H88.577V153.74
		c0-2.779-2.475-2.922-2.966-2.922c-0.499,0-2.968,0.143-2.968,2.922v16.372c0,1.642,1.332,2.972,2.973,2.972h15.409v10.938
		c0,2.777,2.472,2.922,2.972,2.922c0.496,0,2.965-0.145,2.965-2.922v-10.938h5.82c2.772,0,2.917-2.475,2.917-2.972
		C115.699,169.62,115.555,167.146,112.782,167.146z"/>
	<path d="M156.721,30.704h12.682c2.635,0,4.626,1.972,4.626,4.597c0,1.164-0.419,2.274-1.176,3.112
		c-0.861,0.958-2.089,1.486-3.45,1.486h-12.682c-2.772,0-2.912,2.474-2.912,2.97c0,0.499,0.14,2.968,2.912,2.968h12.682
		c7.231,0,10.467-5.292,10.467-10.545c0-5.242-3.235-10.532-10.467-10.532h-9.328l1.062-9.2h15.875c0.954,0,1.69-0.285,2.196-0.861
		c0.466-0.527,0.73-1.3,0.73-2.109c0-0.497-0.141-2.964-2.927-2.964h-18.488c-1.518,0-2.791,1.121-2.96,2.609l-1.784,15.161
		c-0.103,0.845,0.153,1.661,0.722,2.3C155.073,30.346,155.862,30.704,156.721,30.704z"/>
	<path d="M163.733,135.843c0,2.778,2.478,2.923,2.976,2.923c0.816,0,1.582-0.27,2.11-0.731c0.571-0.502,0.856-1.241,0.856-2.191
		V62.521c0-2.771-2.474-2.915-2.971-2.915s-2.972,0.145-2.972,2.915v33.701H118.56l-0.508-1.949
		c-1.773-6.824-7.119-12.172-13.949-13.957l-1.945-0.51V62.521c0-2.781-2.469-2.915-2.965-2.915c-0.493,0-2.957,0.134-2.957,2.915
		v17.285l-1.945,0.51c-6.824,1.785-12.17,7.133-13.949,13.961l-0.506,1.945H34.642V62.521c0-2.771-2.469-2.915-2.963-2.915
		c-0.496,0-2.961,0.145-2.961,2.915v73.321c0,2.778,2.469,2.923,2.965,2.923c0.494,0,2.959-0.145,2.959-2.923v-33.686h45.189
		l0.51,1.943c1.779,6.817,7.125,12.16,13.949,13.949l1.945,0.505v17.288c0,2.778,2.469,2.923,2.967,2.923
		c0.491,0,2.955-0.145,2.955-2.923v-17.288l1.945-0.505c6.83-1.789,12.176-7.132,13.949-13.949l0.508-1.943h45.174V135.843z
		 M99.187,112.737c-7.469,0-13.544-6.083-13.544-13.555c0-7.47,6.075-13.553,13.544-13.553c7.48,0,13.565,6.083,13.565,13.553
		C112.752,106.654,106.667,112.737,99.187,112.737z"/>
</g>
</svg>
