<?xml version="1.0" encoding="utf-8"?>
<!-- Generator: Adobe Illustrator 16.0.0, SVG Export Plug-In . SVG Version: 6.00 Build 0)  -->
<!DOCTYPE svg PUBLIC "-//W3C//DTD SVG 1.1//EN" "http://www.w3.org/Graphics/SVG/1.1/DTD/svg11.dtd">
<svg version="1.1" id="Layer_1" xmlns="http://www.w3.org/2000/svg" xmlns:xlink="http://www.w3.org/1999/xlink" x="0px" y="0px"
	 width="198.425px" height="198.425px" viewBox="0 0 198.425 198.425" enable-background="new 0 0 198.425 198.425"
	 xml:space="preserve">
<g>
	<path d="M187.366,88.923l-0.502-2.925h-20.638l0.656,3.896c1.382,8.251,2.254,16.798,2.605,25.474h-11.544v-29.37
		c0-4.859-3.952-8.813-8.8-8.813h-5.885c-1.625,0-2.943-1.316-2.943-2.938v-5.87c0-4.864-3.952-8.813-8.801-8.813h-23.482v-8.81
		h35.227V33.13H55.164v17.624H90.41v8.81H70.537c-3.361,0-6.386,1.873-7.886,4.865l-2.627,5.266
		c-0.501,0.998-1.506,1.622-2.63,1.622H43.413c-4.866,0-8.817,3.95-8.817,8.813v20.555h-8.804V77.186H8.168v64.615h17.624v-23.504
		h8.804v23.504c0,4.859,3.951,8.813,8.817,8.813h15.196c0.766,0,1.519,0.314,2.074,0.854l11.233,11.249
		c1.658,1.668,3.884,2.577,6.223,2.577h71.005c4.848,0,8.8-3.947,8.8-8.812v-23.491h11.544c-0.306,6.845-0.932,13.643-1.873,20.23
		l-1.3,9.134h20.619l1.188-8.311c1.413-9.933,2.135-20.07,2.135-30.11C190.257,112.234,189.284,100.459,187.366,88.923z
		 M34.596,112.422h-14.68v23.5h-5.878V83.057h5.878v23.495h14.68V112.422z M61.029,44.876v-5.871h76.372v5.871h-35.252v14.688
		h-5.879V44.876H61.029z M52.225,144.741h-8.812c-1.621,0-2.938-1.328-2.938-2.939V80.13c0-1.622,1.317-2.944,2.938-2.944h8.812
		v14.685h11.739c1.627,0,2.943,1.321,2.943,2.941v29.364c0,1.619-1.316,2.935-2.943,2.935H52.225V144.741z M81.591,159.427H78.14
		c-0.761,0-1.514-0.313-2.073-0.869l-11.232-11.236c-1.668-1.677-3.881-2.581-6.225-2.581h-0.507v-11.749h5.861
		c4.871,0,8.822-3.952,8.822-8.815V94.812c0-4.86-3.951-8.813-8.822-8.813h-5.861v-8.86c3.073-0.234,5.785-2.02,7.175-4.817
		l2.633-5.257c0.503-1.002,1.506-1.622,2.627-1.622h11.054V159.427z M105.092,159.427H99.21v-11.753h-5.879v11.753h-5.86v-32.316
		h5.86v14.69h5.879v-14.69h5.882V159.427z M116.838,159.427h-5.884v-32.316h5.884V159.427z M128.577,159.427h-5.868v-32.316h5.868
		V159.427z M152.08,156.483c0,1.618-1.313,2.944-2.936,2.944h-2.943v-20.564h-5.885v20.564h-5.861v-32.316h5.861v5.881h5.885v-5.881
		h5.879V156.483z M152.08,121.237H87.471v-5.868h64.609V121.237z M110.954,109.493V97.746h17.623v11.747H110.954z M152.08,109.493
		h-17.625V91.871h-29.363v17.622H87.471V83.057h41.106v-5.871H87.471V65.442h44.045c1.623,0,2.939,1.318,2.939,2.936v5.87
		c0,4.861,3.954,8.81,8.805,8.81h5.885c1.622,0,2.936,1.322,2.936,2.941V109.493z M182.299,153.222l-0.466,3.261h-8.751l0.349-2.438
		c1.121-7.759,1.802-15.812,2.025-23.91l0.099-3.024h-17.61v-5.874h17.593l-0.081-3.015c-0.24-8.938-1.021-17.789-2.316-26.352h8.75
		c1.655,10.582,2.483,21.359,2.483,32.064C184.373,133.699,183.679,143.554,182.299,153.222z"/>
	<rect x="52.225" y="106.552" width="5.878" height="5.87"/>
	<rect x="93.331" y="97.746" width="5.879" height="5.876"/>
	<rect x="140.316" y="97.746" width="5.885" height="5.876"/>
</g>
</svg>
