<?xml version="1.0" encoding="utf-8"?>
<!-- Generator: Adobe Illustrator 16.0.0, SVG Export Plug-In . SVG Version: 6.00 Build 0)  -->
<!DOCTYPE svg PUBLIC "-//W3C//DTD SVG 1.1//EN" "http://www.w3.org/Graphics/SVG/1.1/DTD/svg11.dtd">
<svg version="1.1" id="Layer_1" xmlns="http://www.w3.org/2000/svg" xmlns:xlink="http://www.w3.org/1999/xlink" x="0px" y="0px"
	 width="198.425px" height="198.426px" viewBox="0 0 198.425 198.426" enable-background="new 0 0 198.425 198.426"
	 xml:space="preserve">
<g>
	<path d="M99.215,14.675c-46.618,0-84.546,37.932-84.546,84.551c0,46.629,37.928,84.525,84.546,84.525
		c46.622,0,84.54-37.896,84.54-84.525C183.755,52.606,145.837,14.675,99.215,14.675z M101.944,20.204
		c41.438,1.412,74.865,34.85,76.287,76.287h-8.232c-0.305-7.82-1.813-15.504-4.646-22.84l-0.713-1.813l-2.707,0.115
		c-9.019,0-16.358-7.338-16.358-16.371c0-2.203,0.429-4.355,1.297-6.381l0.765-1.803l-1.477-1.289
		c-12.281-10.871-27.892-17.045-44.216-17.674V20.204z M141.142,48.989c-0.685,2.121-1.026,4.336-1.026,6.594
		c0,11.693,9.235,21.266,20.801,21.793c0.922,2.627,1.622,5.299,2.215,8.004l-22.205-2.645
		c-4.638-12.857-17.036-21.693-30.809-21.693H88.309c-13.766,0-26.183,8.836-30.806,21.693L35.305,85.38
		c0.577-2.705,1.28-5.377,2.208-8.004c11.557-0.527,20.797-10.1,20.797-21.793c0-2.258-0.342-4.473-1.031-6.594
		c11.758-9.832,26.571-15.227,41.937-15.227C114.575,33.763,129.393,39.157,141.142,48.989z M96.482,20.204v8.225
		c-16.311,0.637-31.936,6.811-44.223,17.682l-1.465,1.289l0.768,1.803c0.865,2.025,1.289,4.178,1.289,6.381
		c0,9.033-7.339,16.371-16.357,16.371l-2.708-0.115l-0.698,1.813c-2.846,7.336-4.352,15.02-4.652,22.84h-8.24
		C21.615,55.054,55.043,21.616,96.482,20.204z M96.482,178.231c-41.438-1.416-74.867-34.83-76.287-76.283h8.184
		c1.405,36.936,31.176,66.697,68.104,68.102V178.231z M35.247,113.065l26.567,3.117c4.688,7.795,11.748,13.971,20.109,17.59
		l3.451,29.414C60.367,157.8,40.641,138.048,35.247,113.065z M90.983,164.134l-4.015-34.213l-1.532-0.592
		c-8.298-3.229-15.239-9.27-19.571-17.02l-0.682-1.207l-30.887-3.658c-0.336-2.697-0.528-5.43-0.528-8.219
		c0-2.77,0.224-5.52,0.569-8.225l27.324-3.264l0.506-1.729c3.424-11.49,14.172-19.521,26.142-19.521h21.809
		c11.977,0,22.718,8.031,26.141,19.521l0.51,1.729l27.321,3.264c0.343,2.705,0.572,5.455,0.572,8.225
		c0,2.777-0.229,5.512-0.572,8.227l-30.843,3.65l-0.682,1.207c-4.337,7.75-11.277,13.803-19.576,17.02l-1.532,0.592l-4.011,34.195
		c-2.711,0.336-5.448,0.559-8.23,0.559C96.423,164.675,93.685,164.493,90.983,164.134z M101.944,178.231v-8.207
		c14.477-0.557,28.217-5.35,39.826-14.09l-3.281-4.355c-7.645,5.734-16.277,9.633-25.432,11.59l3.444-29.396
		c8.369-3.619,15.424-9.795,20.111-17.59l26.539-3.117c-2.536,11.781-8.258,22.705-16.816,31.578l3.916,3.785
		c12.172-12.629,19.14-29.041,19.792-46.48h8.188C176.809,143.401,143.382,176.815,101.944,178.231z"/>
	<path d="M131.943,93.759c0-12.016-9.79-21.805-21.825-21.805H88.309c-12.036,0-21.827,9.789-21.827,21.805
		c0,18.051,14.686,32.73,32.733,32.73C117.258,126.489,131.943,111.81,131.943,93.759z M99.215,121.03
		c-15.038,0-27.267-12.225-27.267-27.271c0-9.006,7.33-16.346,16.36-16.346h21.809c9.023,0,16.364,7.34,16.364,16.346
		C126.482,108.806,114.248,121.03,99.215,121.03z"/>
	<path d="M99.215,85.589c-7.524,0-13.636,6.107-13.636,13.637c0,7.52,6.111,13.623,13.636,13.623
		c7.526,0,13.629-6.104,13.629-13.623C112.844,91.696,106.742,85.589,99.215,85.589z M99.215,107.39
		c-4.509,0-8.178-3.654-8.178-8.164c0-4.518,3.669-8.178,8.178-8.178c4.508,0,8.172,3.66,8.172,8.178
		C107.387,103.735,103.723,107.39,99.215,107.39z"/>
</g>
</svg>
