<?xml version="1.0" encoding="utf-8"?>
<!-- Generator: Adobe Illustrator 16.0.0, SVG Export Plug-In . SVG Version: 6.00 Build 0)  -->
<!DOCTYPE svg PUBLIC "-//W3C//DTD SVG 1.1//EN" "http://www.w3.org/Graphics/SVG/1.1/DTD/svg11.dtd">
<svg version="1.1" id="Layer_1" xmlns="http://www.w3.org/2000/svg" xmlns:xlink="http://www.w3.org/1999/xlink" x="0px" y="0px"
	 width="198.425px" height="198.426px" viewBox="0 0 198.425 198.426" enable-background="new 0 0 198.425 198.426"
	 xml:space="preserve">
<g>
	<path d="M78.318,55.936h-1.065c6.104-4.936,10.01-12.463,10.01-20.9c0-14.813-12.045-26.867-26.859-26.867
		c-14.821,0-26.865,12.055-26.865,26.867c0,8.438,3.916,15.965,10.018,20.9H42.49c-8.229,0-14.922,6.691-14.922,14.922v32.838
		h17.906v7.814l-9.32,1.158l0.734,5.93l8.586-1.074v5.928l-9.32,1.158l0.734,5.93l8.586-1.076v5.926l-9.32,1.162l0.734,5.926
		l8.586-1.07v6.355c-5.451,4.385-8.963,11.092-8.963,18.615c0,13.17,10.718,23.881,23.892,23.881
		c13.166,0,23.875-10.711,23.875-23.881c0-7.523-3.504-14.236-8.944-18.615v-10.094l9.319-1.164l-0.733-5.92l-8.586,1.07v-5.924
		l9.319-1.172l-0.733-5.918l-8.586,1.072v-5.924l9.319-1.17l-0.733-5.92l-8.586,1.072v-4.076h17.905V70.857
		C93.239,62.627,86.545,55.936,78.318,55.936z M39.514,35.035c0-11.514,9.364-20.895,20.889-20.895
		c11.525,0,20.899,9.381,20.899,20.895s-9.374,20.9-20.899,20.9C48.878,55.936,39.514,46.549,39.514,35.035z M78.318,166.377
		c0,9.881-8.038,17.91-17.915,17.91c-9.884,0-17.913-8.029-17.913-17.91c0-9.871,8.029-17.906,17.913-17.906
		C70.28,148.471,78.318,156.506,78.318,166.377z M69.355,114.537v5.914l-17.903,2.246v-5.924L69.355,114.537z M51.452,110.758
		v-7.063h17.903v4.826L51.452,110.758z M69.355,126.475v5.924l-17.903,2.24v-5.924L69.355,126.475z M69.355,138.416v5.838
		c-2.768-1.121-5.778-1.756-8.952-1.756c-3.172,0-6.184,0.635-8.951,1.756v-3.602L69.355,138.416z M87.262,85.785h-5.96v5.967h5.96
		v5.969H33.538v-5.969h41.796v-5.967H33.538V70.857c0-4.938,4.014-8.951,8.952-8.951h35.828c4.929,0,8.944,4.014,8.944,8.951V85.785
		z"/>
	<path d="M60.403,49.961c3.146,0,6.157-0.969,8.694-2.791l-3.479-4.857c-1.522,1.096-3.324,1.678-5.216,1.678
		c-4.937,0-8.951-4.02-8.951-8.955c0-4.938,4.015-8.955,8.951-8.955c4.938,0,8.952,4.018,8.952,8.955c0,1.57-0.41,3.107-1.181,4.461
		l5.17,2.982c1.3-2.252,1.989-4.828,1.989-7.443c0-8.23-6.704-14.928-14.931-14.928c-8.234,0-14.929,6.697-14.929,14.928
		C45.474,43.262,52.168,49.961,60.403,49.961z"/>
	<path d="M60.403,154.438c-6.577,0-11.945,5.354-11.945,11.939c0,6.584,5.368,11.941,11.945,11.941
		c6.588,0,11.938-5.357,11.938-11.941C72.34,159.791,66.991,154.438,60.403,154.438z M60.403,172.346
		c-3.298,0-5.967-2.676-5.967-5.969c0-3.287,2.669-5.969,5.967-5.969c3.299,0,5.969,2.682,5.969,5.969
		C66.372,169.67,63.702,172.346,60.403,172.346z"/>
	<path d="M170.857,103.695V70.857c0-8.23-6.695-14.922-14.93-14.922h-1.059c6.104-4.936,10.01-12.463,10.01-20.9
		c0-14.813-12.053-26.867-26.866-26.867c-14.807,0-26.867,12.055-26.867,26.867c0,8.438,3.917,15.965,10.02,20.9h-1.058
		c-8.228,0-14.923,6.691-14.923,14.922v32.838h17.907v7.814l-9.329,1.158l0.744,5.93l8.585-1.074v5.928l-9.329,1.158l0.744,5.93
		l8.585-1.076v5.926l-9.329,1.162l0.744,5.926l8.585-1.07v6.355c-5.459,4.385-8.953,11.092-8.953,18.615
		c0,13.17,10.708,23.881,23.874,23.881c13.174,0,23.881-10.711,23.881-23.881c0-7.523-3.502-14.236-8.951-18.615v-10.094
		l9.329-1.164l-0.744-5.92l-8.585,1.07v-5.924l9.329-1.172l-0.744-5.918l-8.585,1.072v-5.924l9.329-1.17l-0.744-5.92l-8.585,1.072
		v-4.076H170.857z M117.123,35.035c0-11.514,9.373-20.895,20.89-20.895c11.516,0,20.898,9.381,20.898,20.895
		s-9.383,20.9-20.898,20.9C126.496,55.936,117.123,46.549,117.123,35.035z M155.927,166.377c0,9.881-8.039,17.91-17.915,17.91
		s-17.905-8.029-17.905-17.91c0-9.871,8.029-17.906,17.905-17.906S155.927,156.506,155.927,166.377z M146.974,114.537v5.914
		l-17.915,2.246v-5.924L146.974,114.537z M129.059,110.758v-7.063h17.915v4.826L129.059,110.758z M146.974,126.475v5.924
		l-17.915,2.24v-5.924L146.974,126.475z M146.974,138.416v5.838c-2.77-1.121-5.789-1.756-8.962-1.756
		c-3.164,0-6.193,0.635-8.953,1.756v-3.602L146.974,138.416z M111.145,97.721v-5.969h41.797v-5.967h-41.797V70.857
		c0-4.938,4.023-8.951,8.962-8.951h35.82c4.928,0,8.951,4.014,8.951,8.951v14.928h-5.968v5.967h5.968v5.969H111.145z"/>
	<path d="M138.012,49.961c8.235,0,14.93-6.699,14.93-14.926c0-8.23-6.694-14.928-14.93-14.928c-8.228,0-14.921,6.697-14.921,14.928
		C123.091,43.262,129.785,49.961,138.012,49.961z M138.012,26.08c4.938,0,8.962,4.018,8.962,8.955c0,4.936-4.024,8.955-8.962,8.955
		c-4.93,0-8.953-4.02-8.953-8.955C129.059,30.098,133.083,26.08,138.012,26.08z"/>
	<path d="M138.012,154.438c-6.577,0-11.938,5.354-11.938,11.939c0,6.584,5.361,11.941,11.938,11.941
		c2.259,0,4.453-0.637,6.354-1.834l-3.181-5.043c-0.941,0.596-2.036,0.904-3.173,0.904c-3.288,0-5.97-2.676-5.97-5.969
		c0-3.287,2.682-5.969,5.97-5.969c3.29,0,5.977,2.682,5.977,5.969c0,0.771-0.143,1.514-0.429,2.223l5.537,2.213
		c0.573-1.416,0.853-2.906,0.853-4.436C149.95,159.791,144.598,154.438,138.012,154.438z"/>
</g>
</svg>
