<?xml version="1.0" encoding="utf-8"?>
<!-- Generator: Adobe Illustrator 16.0.0, SVG Export Plug-In . SVG Version: 6.00 Build 0)  -->
<!DOCTYPE svg PUBLIC "-//W3C//DTD SVG 1.1//EN" "http://www.w3.org/Graphics/SVG/1.1/DTD/svg11.dtd">
<svg version="1.1" id="Layer_1" xmlns="http://www.w3.org/2000/svg" xmlns:xlink="http://www.w3.org/1999/xlink" x="0px" y="0px"
	 width="198.425px" height="198.425px" viewBox="0 0 198.425 198.425" enable-background="new 0 0 198.425 198.425"
	 xml:space="preserve">
<g>
	<path d="M187.416,56.555l-32.26-32.26c-4.701-4.695-11.983-5.242-17.325-1.301L120.4,35.839c-0.637,0.472-1.027,1.188-1.089,1.974
		c-0.056,0.785,0.227,1.551,0.784,2.111l4.193,4.196l-18.441,18.454H92.583L74.133,44.121l4.193-4.196
		c0.558-0.561,0.848-1.33,0.794-2.111c-0.064-0.785-0.463-1.506-1.088-1.974L60.598,22.995c-5.341-3.941-12.627-3.395-17.324,1.301
		l-5.104,5.112c-1.057,1.052-1.057,2.766,0,3.813c1.056,1.057,2.757,1.057,3.813,0l5.114-5.11c2.788-2.792,7.123-3.119,10.301-0.773
		l5.8,4.274L18.323,76.479l-4.262-5.793c-2.345-3.188-2.019-7.527,0.771-10.32l19.519-19.519c1.052-1.052,1.052-2.757,0-3.817
		c-1.053-1.048-2.761-1.048-3.813,0L11.014,56.551C6.322,61.247,5.769,68.537,9.708,73.88l12.854,17.425
		c0.466,0.638,1.178,1.035,1.968,1.095c0.066,0.003,0.135,0.007,0.204,0.007c0.711,0,1.396-0.283,1.907-0.791l4.2-4.199l3.132,3.134
		c-6.619,5.697-10.495,14.015-10.495,22.828c0,14.469,10.323,26.818,24.338,29.561c1.529,8.074,7.269,14.664,14.858,17.387v9.691
		c0,4.432,3.601,8.039,8.034,8.039c3.486,0,6.456-2.234,7.572-5.338h3.867c1.102,3.104,4.076,5.338,7.563,5.338
		c3.482,0,6.453-2.234,7.572-5.338h3.862c1.112,3.104,4.081,5.338,7.568,5.338c3.493,0,6.46-2.234,7.577-5.338h3.858
		c1.114,3.104,4.085,5.338,7.568,5.338c4.428,0,8.036-3.607,8.036-8.039v-21.209c4.231-0.584,8.034-2.523,10.963-5.361
		c5.394-0.338,10.579-2.117,15.055-5.18c1.229-0.832,1.541-2.516,0.702-3.748c-0.84-1.225-2.516-1.547-3.75-0.701
		c-2.371,1.617-4.982,2.793-7.727,3.504c0.864-1.943,1.425-4.055,1.614-6.266c6.969-3.066,11.535-9.941,11.535-17.678
		c0-5.992-2.753-11.533-7.364-15.162l3.846-3.841c5.617,4.684,8.919,11.638,8.919,19.003c0,4.822-1.396,9.496-4.035,13.523
		c-0.815,1.244-0.474,2.916,0.773,3.736c0.455,0.295,0.966,0.441,1.479,0.441c0.879,0,1.743-0.434,2.263-1.219
		c3.223-4.9,4.914-10.604,4.914-16.482c0-8.813-3.867-17.131-10.497-22.823l3.145-3.139l4.198,4.199
		c0.511,0.508,1.196,0.791,1.908,0.791c0.063,0,0.128-0.004,0.201-0.01c0.783-0.057,1.505-0.454,1.962-1.092l12.854-17.425
		C192.654,68.539,192.107,61.25,187.416,56.555z M105.847,67.967l37.517,37.521l-1.965,6.104c-0.009-0.004-0.013-0.004-0.013-0.01
		c0,0-32.623-23.601-33.009-23.888c-2.547-1.923-5.73-3.066-9.158-3.066c-3.98,0-7.599,1.525-10.318,4.024l-29.858,29.188
		l-3.976-12.353l37.516-37.521H105.847z M109.086,99.908c0,5.444-4.427,9.869-9.867,9.869c-5.45,0-9.875-4.425-9.875-9.869
		c0-5.45,4.425-9.88,9.875-9.88C104.66,90.028,109.086,94.458,109.086,99.908z M87.654,65.272l-35.666,35.657l-17.329-17.33
		l4.108-4.11l7.604,7.599c1.502,1.499,3.49,2.321,5.608,2.321c2.127,0,4.113-0.822,5.608-2.321c1.507-1.503,2.327-3.49,2.327-5.608
		c0-2.117-0.82-4.111-2.327-5.606l-7.598-7.606l0.063-0.063l4.934-4.936l7.608,7.604c1.491,1.5,3.481,2.329,5.604,2.329
		c2.123,0,4.111-0.829,5.604-2.329c3.098-3.092,3.098-8.123,0-11.217l-7.598-7.604l4.117-4.115L87.654,65.272z M42.589,75.668
		l3.591-3.584l7.6,7.604c0.476,0.474,0.739,1.11,0.739,1.791c0,0.678-0.264,1.313-0.739,1.793c-0.485,0.479-1.125,0.744-1.801,0.744
		c-0.67,0-1.31-0.266-1.79-0.744L42.589,75.668z M58.807,59.458l3.587-3.589l7.599,7.604c0.993,0.986,0.993,2.596,0,3.585
		c-0.48,0.477-1.12,0.744-1.795,0.744c-0.676,0-1.314-0.268-1.792-0.744L58.807,59.458z M25.047,85.584l-3.478-4.713l46.016-46.019
		l4.716,3.468L25.047,85.584z M47.455,137.33c-10.781-2.766-18.581-12.559-18.581-23.951c0-7.365,3.301-14.319,8.929-19.003
		l3.834,3.838c-4.601,3.628-7.354,9.173-7.354,15.165c0,4.842,1.805,9.479,5.093,13.055c2.461,2.68,5.589,4.592,9.026,5.553
		C47.888,133.693,47.558,135.482,47.455,137.33z M39.679,113.378c0-4.533,2.189-8.713,5.817-11.315l4.125,4.138l5.061,15.699
		c-1.583,1.49-2.961,3.195-4.067,5.072C44.362,125.585,39.679,119.919,39.679,113.378z M73.348,170.017
		c0,1.461-1.183,2.65-2.639,2.65c-1.45,0-2.644-1.189-2.644-2.65v-8.463c0.776,0.074,1.56,0.121,2.354,0.121
		c0.998,0,1.972-0.074,2.929-0.201V170.017z M81.678,167.322h-2.934v-7.217c1.015-0.393,1.99-0.852,2.934-1.385V167.322z
		 M70.428,156.277c-9.721,0-17.618-7.902-17.618-17.615s7.897-17.611,17.618-17.611c9.707,0,17.602,7.898,17.602,17.611
		S80.135,156.277,70.428,156.277z M92.355,170.017c0,1.461-1.193,2.65-2.644,2.65c-1.455,0-2.644-1.189-2.644-2.65v-15.465
		l5.287-5.184V170.017z M93.321,140.861c0.073-0.727,0.113-1.455,0.113-2.199c0-12.684-10.324-23.006-23.006-23.006
		c-0.507,0-0.998,0.021-1.483,0.053L83.985,101c0.563,7.91,7.177,14.18,15.234,14.18c8.416,0,15.263-6.855,15.263-15.271
		c0-0.362-0.015-0.72-0.037-1.073l15.479,11.149c-4.153,0.67-7.882,2.641-10.736,5.492v-0.016L93.321,140.861z M100.685,167.322
		h-2.938V149h2.938V167.322z M111.363,170.017c0,1.461-1.197,2.643-2.648,2.643c-1.455,0-2.64-1.182-2.64-2.643V149h5.288V170.017z
		 M98.237,143.599l15.211-14.932c-0.018,0.232-0.027,0.459-0.027,0.691c0,5.605,2.367,10.664,6.135,14.24H98.237z M119.677,167.322
		h-2.926V149h2.926V167.322z M130.354,170.017c0,1.461-1.183,2.643-2.636,2.643c-1.455,0-2.64-1.182-2.64-2.643V149h5.275V170.017z
		 M133.058,143.593c-7.85,0-14.233-6.379-14.233-14.234c0-7.852,6.375-14.234,14.233-14.234c7.852,0,14.232,6.383,14.232,14.234
		C147.291,137.214,140.91,143.593,133.058,143.593z M158.752,113.378c0,4.877-2.517,9.285-6.513,11.789
		c-0.906-4.135-3.11-7.771-6.161-10.484l2.725-8.482l4.13-4.138C156.557,104.666,158.752,108.845,158.752,113.378z M146.442,100.929
		l-35.665-35.657l17.334-17.336l4.117,4.115l-7.6,7.604c-3.097,3.094-3.097,8.125,0,11.217c1.491,1.5,3.491,2.329,5.6,2.329
		c2.118,0,4.112-0.829,5.607-2.329l7.61-7.604l4.995,4.998l-7.608,7.606c-1.497,1.495-2.316,3.489-2.316,5.606
		c0,2.118,0.819,4.105,2.316,5.608c1.505,1.499,3.493,2.321,5.609,2.321c2.117,0,4.107-0.822,5.607-2.321l7.604-7.603l4.119,4.114
		L146.442,100.929z M136.044,55.869l1.184,1.189l2.396,2.399l-7.6,7.6c-0.476,0.477-1.116,0.744-1.796,0.744
		c-0.668,0-1.31-0.268-1.79-0.744c-0.994-0.989-0.994-2.599,0-3.585L136.044,55.869z M152.249,72.084l3.593,3.584l-7.601,7.604
		c-0.48,0.479-1.12,0.744-1.799,0.744c-0.674,0-1.311-0.266-1.791-0.744c-0.478-0.48-0.739-1.115-0.739-1.793
		c0-0.681,0.262-1.317,0.739-1.795L152.249,72.084z M173.383,85.583L126.13,38.326l4.704-3.473l46.026,46.019L173.383,85.583z
		 M184.368,70.676l-4.27,5.803l-44.869-44.867l5.805-4.274c3.177-2.346,7.513-2.019,10.3,0.773l32.264,32.261
		C186.393,63.164,186.714,67.499,184.368,70.676z"/>
	<path d="M70.428,130.517c-4.497,0-8.156,3.654-8.156,8.145s3.659,8.143,8.156,8.143c4.489,0,8.139-3.652,8.139-8.143
		S74.917,130.517,70.428,130.517z M70.428,141.408c-1.523,0-2.752-1.232-2.752-2.746c0-1.512,1.229-2.748,2.752-2.748
		c1.506,0,2.733,1.236,2.733,2.748C73.162,140.175,71.934,141.408,70.428,141.408z"/>
	<path d="M133.058,121.218c-4.495,0-8.144,3.652-8.144,8.141c0,4.494,3.648,8.146,8.144,8.146c4.489,0,8.139-3.652,8.139-8.146
		C141.197,124.871,137.547,121.218,133.058,121.218z M133.058,132.109c-1.52,0-2.752-1.232-2.752-2.75
		c0-1.512,1.232-2.746,2.752-2.746c1.518,0,2.746,1.234,2.746,2.746C135.804,130.876,134.576,132.109,133.058,132.109z"/>
</g>
</svg>
