<?xml version="1.0" encoding="utf-8"?>
<!-- Generator: Adobe Illustrator 16.0.0, SVG Export Plug-In . SVG Version: 6.00 Build 0)  -->
<!DOCTYPE svg PUBLIC "-//W3C//DTD SVG 1.1//EN" "http://www.w3.org/Graphics/SVG/1.1/DTD/svg11.dtd">
<svg version="1.1" id="Layer_1" xmlns="http://www.w3.org/2000/svg" xmlns:xlink="http://www.w3.org/1999/xlink" x="0px" y="0px"
	 width="198.425px" height="198.425px" viewBox="0 0 198.425 198.425" enable-background="new 0 0 198.425 198.425"
	 xml:space="preserve">
<g>
	<path d="M94.832,87.741c-6.336,0-11.48,5.146-11.48,11.469c0,6.337,5.145,11.475,11.48,11.475c6.34,0,11.48-5.138,11.48-11.475
		C106.313,92.886,101.172,87.741,94.832,87.741z M94.832,104.941c-3.176,0-5.748-2.564-5.748-5.731c0-3.154,2.572-5.734,5.748-5.734
		c3.164,0,5.74,2.58,5.74,5.734C100.572,102.376,97.996,104.941,94.832,104.941z"/>
	<path d="M94.832,76.269c-12.658,0-22.957,10.301-22.957,22.94c0,12.657,10.299,22.953,22.957,22.953s22.963-10.296,22.963-22.953
		C117.795,86.57,107.49,76.269,94.832,76.269z M94.832,116.426c-9.5,0-17.219-7.725-17.219-17.217
		c0-9.487,7.719-17.199,17.219-17.199c9.494,0,17.211,7.712,17.211,17.199C112.043,108.702,104.326,116.426,94.832,116.426z"/>
	<path d="M94.832,16.01v-5.728c-33.947,0-65.426,19.781-80.162,50.399l5.17,2.475C33.625,34.532,63.059,16.01,94.832,16.01z"/>
	<path d="M19.84,135.264l-5.17,2.486c14.736,30.609,46.215,50.393,80.162,50.393V182.4C63.059,182.4,33.625,163.894,19.84,135.264z"
		/>
	<rect x="91.973" y="64.79" width="5.732" height="5.748"/>
	<polygon points="61.203,91.312 66.652,93.083 68.434,87.629 62.973,85.855 	"/>
	<polygon points="72.285,125.375 76.918,128.744 80.287,124.111 75.633,120.741 	"/>
	<polygon points="109.363,124.111 112.742,128.744 117.385,125.375 114.01,120.741 	"/>
	<polygon points="123.008,93.09 128.461,91.312 126.689,85.864 121.219,87.629 	"/>
	<rect x="91.973" y="33.24" width="5.732" height="5.736"/>
	<rect x="103.445" y="41.839" width="5.73" height="5.736"/>
	<polygon points="31.199,81.544 36.643,83.309 38.422,77.866 32.971,76.09 	"/>
	<polygon points="44.705,67.828 42.916,73.293 48.383,75.077 50.158,69.621 	"/>
	<polygon points="53.725,150.892 58.379,154.264 61.736,149.613 57.094,146.255 	"/>
	<rect x="50.639" y="133.694" transform="matrix(0.8089 0.5879 -0.5879 0.8089 90.5063 -5.3627)" width="5.729" height="5.744"/>
	<polygon points="131.283,154.291 135.936,150.907 132.566,146.271 127.906,149.638 	"/>
	<polygon points="113.57,149.417 116.936,154.061 121.578,150.688 118.213,146.055 	"/>
	<rect x="166.553" y="96.353" width="5.734" height="5.732"/>
	<path d="M158.482,37.134l-2.086-2.132l-9.891,10.435c-13.959-13.414-32.299-20.806-51.674-20.806
		c-41.121,0-74.586,33.452-74.586,74.578c0,41.133,33.465,74.592,74.586,74.592c19.482,0,37.715-7.385,51.668-20.823l9.896,10.435
		l2.086-2.125c16.301-16.713,25.271-38.767,25.271-62.078C183.754,75.896,174.783,53.847,158.482,37.134z M94.832,30.373
		c17.902,0,34.838,6.829,47.734,19.237l-11.828,12.479l1.846,1.979c2.217,2.388,4.193,4.942,5.9,7.653
		c-0.955,2.491-1.779,5.001-2.369,7.571c-6.27-12.953-18.436-22.513-32.99-25.179l-1.648-0.642
		C90.699,49.87,81.564,42.678,75.455,33.159C81.617,31.348,88.102,30.373,94.832,30.373z M135.004,99.209
		c0,22.147-18.023,40.17-40.172,40.17c-22.145,0-40.162-18.022-40.162-40.17c0-22.141,18.018-40.149,40.162-40.149
		C116.98,59.06,135.004,77.069,135.004,99.209z M69.867,35.074c4.695,7.737,11.168,14.115,18.781,18.707
		C73.854,55.801,61.256,64.825,54.43,77.456l-1.051,1.297c-6.748,9.142-16.408,15.611-27.336,18.47
		C26.844,68.92,44.803,44.86,69.867,35.074z M71.668,164.042c-25.418-9.125-43.982-32.773-45.563-60.918
		c8.795-2.056,16.887-6.233,23.596-12.059c-0.475,2.655-0.771,5.361-0.771,8.145c0,12.187,4.818,23.24,12.574,31.474l1.066,1.635
		C69.16,141.563,72.342,152.75,71.668,164.042z M94.832,168.067c-6.053,0-11.924-0.807-17.525-2.275
		c0.777-9.002-0.717-17.971-4.145-26.139c6.439,3.479,13.828,5.461,21.67,5.461c7.049,0,13.703-1.635,19.68-4.498l1.834-0.494
		c5.152-1.622,10.482-2.338,15.844-2.235l10.377,10.915C129.666,161.231,112.826,168.067,94.832,168.067z M157.883,101.948
		c-0.5,11.432-4.092,22.513-10.4,32.045l-1.229,1.858l13.662,15.123c-1.115,1.401-2.268,2.794-3.494,4.126l-17.865-18.84
		c1.842-2.16,3.521-4.45,5.01-6.847l-4.871-3.029c-1.268,2.029-2.734,3.96-4.283,5.812c-2.645-0.134-5.283-0.077-7.91,0.15
		c8.752-8.365,14.236-20.111,14.236-33.137c0-2.033-0.193-4.021-0.443-5.982l0.104-1.829c0.025-4.303,0.672-8.505,1.773-12.592
		c2.779,6.376,4.299,13.313,4.299,20.403c0,8.083-1.826,15.816-5.438,23.004l5.127,2.566c4.014-7.986,6.055-16.597,6.055-25.57
		c0-13.62-4.836-26.674-13.658-37.044l17.865-18.85c1.227,1.349,2.379,2.726,3.494,4.133l-13.662,15.122l1.229,1.856
		c6.309,9.536,9.9,20.61,10.4,32.038l5.729-0.256c-0.5-11.703-4.014-23.094-10.139-33.062l9.943-11.003
		c9.49,13.762,14.604,30.054,14.604,47.064c0,17.024-5.113,33.311-14.604,47.079l-9.943-11.014
		c6.141-9.958,9.639-21.342,10.139-33.071L157.883,101.948z"/>
</g>
</svg>
